PathFileType  4	(X/Y/Z) C:\Users\antoi\Documents\MyRepositories\mobilecap\ResultsAnalysis
DataRate	CameraRate	NumFrames	NumMarkers	Units	OrigDataRate	OrigDataStartFrame	OrigNumFrames
100.0	100.0	6	51	mm	100.0	100	133
Frame#	Time	r_knee			r_shank_antsup			r_ankle			r_calc			r_5meta			r_toe			L_knee			L_shank_antsup			L_ankle			L_calc			L_5meta			L_toe			r_sh2			r_sh3			r_sh4			L_sh2			L_sh3			r_thigh1			r_thigh2			r_thigh3			r_thigh4			r_thigh5			L_thigh1			L_thigh2			L_thigh3			L_thigh4			r.ASIS			r.PSIS			L.ASIS			L.PSIS			C7			R_Shoulder			L_Shoulder			R_Sternum			L_Sternum			R_humerus			R_elbow_med			R_elbow_lat			R_forearm			R_wrist_radius			R_wrist_ulna			L_humerus			L_elbow_med			L_elbow_lat			L_forearm			L_wrist_radius			L_wrist_ulna			R_HJC			L_HJC			R_HJC_reg			L_HJC_reg			
		X1	Y1	Z1	X2	Y2	Z2	X3	Y3	Z3	X4	Y4	Z4	X5	Y5	Z5	X6	Y6	Z6	X7	Y7	Z7	X8	Y8	Z8	X9	Y9	Z9	X10	Y10	Z10	X11	Y11	Z11	X12	Y12	Z12	X13	Y13	Z13	X14	Y14	Z14	X15	Y15	Z15	X16	Y16	Z16	X17	Y17	Z17	X18	Y18	Z18	X19	Y19	Z19	X20	Y20	Z20	X21	Y21	Z21	X22	Y22	Z22	X23	Y23	Z23	X24	Y24	Z24	X25	Y25	Z25	X26	Y26	Z26	X27	Y27	Z27	X28	Y28	Z28	X29	Y29	Z29	X30	Y30	Z30	X31	Y31	Z31	X32	Y32	Z32	X33	Y33	Z33	X34	Y34	Z34	X35	Y35	Z35	X36	Y36	Z36	X37	Y37	Z37	X38	Y38	Z38	X39	Y39	Z39	X40	Y40	Z40	X41	Y41	Z41	X42	Y42	Z42	X43	Y43	Z43	X44	Y44	Z44	X45	Y45	Z45	X46	Y46	Z46	X47	Y47	Z47	X48	Y48	Z48	X49	Y49	Z49	X50	Y50	Z50	X51	Y51	Z51	

100	0.99000000	1173.71131	519.89233	-37.25915	1219.00867	479.96567	-52.88852	1170.32327	115.77537	-59.73170	1108.69530	75.96352	-99.43787	1310.00673	61.97620	-39.36023	1337.08101	92.72319	-98.75015	934.41287	485.36112	-314.22031	944.92136	394.63938	-317.70189	826.88672	96.55438	-244.86325	763.19112	63.14029	-189.39574	942.04753	40.05427	-270.24009	988.36416	59.34291	-217.07034	1222.69671	365.85294	-63.05599	1158.90054	471.10192	-4.99091	1165.19008	355.51694	-1.04918	859.65777	421.07258	-329.23868	831.22964	304.26955	-314.51817	1125.77583	818.86371	-95.35939	1179.74038	722.18239	-92.69209	1183.01809	699.12806	-27.82919	1079.79603	794.65050	4.47864	1135.44332	695.16476	3.31071	1023.30433	801.39172	-350.09699	1008.89792	661.04512	-346.16147	910.60042	812.32934	-348.75169	894.11842	678.59692	-326.70641	1075.94750	960.27141	-60.72167	880.32955	991.84451	-124.25710	1072.83831	939.95547	-295.13153	877.23933	993.87013	-222.80730	958.75289	1466.39650	-203.46917	1008.18081	1434.56478	-43.17396	1021.81828	1415.92847	-356.33371	1061.90087	1363.98998	-179.72485	1065.69335	1358.60479	-216.49054	948.40822	1207.93880	56.30826	861.68142	1140.08717	28.46427	893.93758	1134.82521	81.97996	902.39914	995.27576	110.36846	894.97410	885.58451	105.25786	866.96903	899.91920	138.27893	1058.18674	1192.80820	-433.84947	1036.13114	1077.01544	-390.44796	1057.77642	1086.21471	-445.73498	1189.22041	1020.09414	-440.37567	1280.16722	971.23839	-403.51615	1261.03144	938.16176	-426.18845	999.27087	877.65130	-85.97959	980.10614	875.63923	-275.67524	1007.22859	876.77995	-92.31772	1002.36409	879.96918	-247.51146	
101	1.00000000	1183.19376	516.69891	-36.18215	1229.86232	479.82869	-51.76808	1206.12015	113.26711	-61.63038	1147.36930	69.91983	-101.39139	1349.06148	68.43999	-41.12449	1374.38884	101.52068	-100.07299	938.80584	485.09056	-314.69500	948.15134	394.22429	-318.16955	827.36716	97.07895	-244.83473	763.45089	63.62168	-189.32854	942.15892	39.98855	-270.41597	988.13555	59.01082	-217.19942	1241.25575	366.37603	-62.36978	1170.33262	466.88651	-4.11841	1183.97520	351.92278	-0.91320	863.13994	421.55907	-329.38846	833.50666	305.04375	-314.59773	1137.47775	814.93090	-95.72326	1189.72096	717.24977	-92.69731	1192.89707	694.67980	-27.72157	1091.44073	792.05609	4.42686	1145.51540	691.82931	3.76698	1032.79277	799.76156	-350.43416	1016.13193	659.79546	-346.19006	920.04312	812.36742	-348.53048	901.61288	678.94589	-326.34079	1088.82050	958.36641	-60.84403	892.79949	989.83843	-123.30334	1084.31748	938.71616	-295.27513	889.14301	992.17848	-221.81969	971.00973	1464.61598	-203.03279	1020.59315	1432.80607	-42.76032	1033.93080	1414.33476	-355.75817	1074.12835	1362.16056	-179.46001	1077.86423	1356.77011	-216.25482	957.05778	1207.48420	56.94594	869.63543	1140.65637	28.41810	900.97542	1135.23615	82.39890	907.85788	995.52215	111.19209	899.60792	885.90071	106.20015	871.30243	900.51090	138.71383	1072.66512	1192.10818	-433.51500	1052.09148	1075.76933	-390.32927	1073.63187	1085.37669	-445.71855	1206.77311	1022.45627	-439.75892	1298.62153	976.11231	-402.29741	1280.36522	942.49796	-424.84492	1012.06296	875.71976	-85.95176	991.85815	874.21452	-275.54361	1020.01912	874.82712	-92.31145	1014.26298	878.51135	-247.45741	
102	1.01000000	1192.39588	513.23730	-34.86329	1240.21502	479.33101	-50.15579	1240.24214	111.92009	-63.84407	1184.63636	65.66734	-104.10717	1385.70884	75.83750	-42.73132	1409.38003	111.23286	-100.88539	943.62419	484.66941	-315.17678	951.78182	393.65452	-318.62760	827.89686	97.61212	-244.87159	763.70267	64.18421	-189.34627	942.26342	39.90412	-270.54176	987.75540	58.56193	-217.33844	1258.83000	366.92596	-61.31139	1181.11949	462.49788	-3.12719	1201.59685	348.49494	-0.80758	867.04546	421.95782	-329.60753	836.11506	305.76999	-314.78031	1149.45211	810.50250	-96.14810	1199.84574	711.80290	-92.48932	1202.66064	689.74314	-27.47702	1103.29873	789.31685	4.28602	1155.56552	688.20851	4.45864	1042.49846	797.98212	-350.80614	1023.65857	658.40866	-346.25894	929.80282	812.24704	-348.55102	909.42770	679.09889	-326.09594	1101.82570	956.20994	-60.97588	905.38269	987.56696	-122.33919	1095.89871	937.37434	-295.39224	901.18110	990.24478	-220.80534	983.28639	1462.61736	-202.50479	1032.98116	1430.86008	-42.23501	1046.14297	1412.43406	-355.09576	1086.42473	1360.12153	-179.04050	1090.05755	1354.71274	-215.87823	965.89698	1206.85168	57.63345	877.96076	1140.88339	28.35142	908.30661	1135.37100	82.77613	913.87980	995.53876	112.03491	905.03023	885.97334	107.15382	876.36390	900.79466	139.09744	1087.06916	1191.07423	-433.06986	1067.82799	1074.21499	-390.14636	1089.26355	1084.18255	-445.60568	1223.90311	1024.29916	-439.21810	1316.55624	980.42908	-401.19537	1299.17444	946.22435	-423.58906	1025.00615	873.53226	-85.96798	1003.75995	872.63209	-275.44869	1032.92566	872.67643	-92.34740	1026.31085	876.89278	-247.41429	
103	1.02000000	1201.52514	509.64575	-33.45167	1250.22291	478.49310	-48.19468	1272.21650	111.45815	-66.31327	1219.89134	63.03394	-107.55901	1419.49488	83.58388	-44.11009	1441.66613	121.25773	-101.13183	948.98330	484.04373	-315.63604	955.92608	392.89655	-319.03913	828.49153	98.16632	-244.99328	763.94805	64.86075	-189.46636	942.35653	39.79612	-270.61757	987.27013	58.00340	-217.45847	1275.36435	367.38924	-60.00620	1191.42220	458.01726	-2.11230	1218.05229	345.19730	-0.77980	871.50247	422.24961	-329.89129	839.14569	306.43052	-315.08167	1161.68834	805.77431	-96.59904	1210.13808	706.07188	-92.11954	1212.52222	684.57788	-27.12523	1115.44385	786.52798	4.09905	1165.80533	684.44519	5.36047	1052.43660	796.04362	-351.15825	1031.54641	656.86573	-346.36450	939.90392	811.93656	-348.82682	917.63250	679.01531	-325.98334	1114.96535	953.83667	-61.10844	918.06972	985.07723	-121.34090	1107.58566	935.87937	-295.48869	913.34028	988.10981	-219.73848	995.57438	1460.42922	-201.87803	1045.33108	1428.73839	-41.59775	1058.44332	1410.25637	-354.35298	1098.79045	1357.88449	-178.45884	1102.27825	1352.45009	-215.35739	974.97863	1206.00220	58.35859	886.69391	1140.72376	28.27857	916.02336	1135.18436	83.11687	920.49203	995.27900	112.88832	911.25245	885.75829	108.14677	882.16007	900.73766	139.45400	1101.36256	1189.71841	-432.50929	1083.32729	1072.37501	-389.89346	1104.66473	1082.65875	-445.38211	1240.60946	1025.65549	-438.70985	1333.99922	984.16350	-400.20789	1317.51453	949.34516	-422.42423	1038.08275	871.12820	-85.98942	1015.77615	870.87964	-275.34878	1045.94188	870.32492	-92.40839	1038.49463	875.10097	-247.37966	
104	1.03000000	1210.80083	506.06070	-32.12042	1260.07760	477.33599	-46.08099	1301.58061	111.53274	-68.95738	1252.51453	61.68277	-111.60231	1450.01272	90.99434	-45.16560	1470.92257	130.85614	-100.81203	954.99172	483.18328	-316.03061	960.67850	391.93277	-319.36336	829.16930	98.76935	-245.21238	764.20448	65.69201	-189.69471	942.43943	39.66751	-270.66338	986.75853	57.36746	-217.53313	1290.88335	367.64268	-58.61254	1201.44033	453.54665	-1.20114	1233.39456	341.99929	-0.90485	876.63087	422.43270	-330.22235	842.67896	307.02130	-315.49563	1174.16482	801.01529	-96.98933	1220.66042	700.37252	-91.63075	1222.69805	679.48519	-26.67419	1127.88184	783.76332	3.94194	1176.40418	680.68969	6.41271	1062.60773	793.95791	-351.43136	1039.85938	655.16523	-346.48658	950.34240	811.40971	-349.31908	926.26838	678.66903	-325.97528	1128.21302	951.28532	-61.22819	930.85099	982.44064	-120.28516	1119.36639	934.18792	-295.56848	925.60350	985.82933	-218.59755	1007.87287	1458.09720	-201.15460	1057.63168	1426.46667	-40.84498	1070.81292	1407.84814	-353.53995	1111.22797	1355.47805	-177.71573	1114.53994	1350.01770	-214.69457	984.34667	1204.90265	59.11179	895.86879	1140.14195	28.21375	924.21833	1134.63922	83.43397	927.72992	994.70174	113.74265	918.29509	885.22724	109.19407	888.70017	900.31399	139.80603	1115.49773	1188.06768	-431.83910	1098.57975	1070.28125	-389.55884	1119.81471	1080.85613	-445.04606	1256.88649	1026.56515	-438.19349	1350.95695	987.30001	-399.32849	1335.38674	951.88602	-421.36563	1051.25175	868.55751	-85.97520	1027.85553	868.95681	-275.20139	1059.03583	867.79293	-92.46296	1050.76992	873.13197	-247.33832	
105	1.04000000	1220.44716	502.60627	-31.02817	1270.01847	475.88048	-44.04240	1327.89675	111.74961	-71.68235	1281.90257	61.12541	-115.97202	1476.92051	97.36461	-45.81751	1496.88662	139.23299	-99.99871	961.73446	482.09186	-316.31017	966.09538	390.76596	-319.56451	829.94747	99.46445	-245.52958	764.50079	66.73014	-190.02533	942.51819	39.52339	-270.70838	986.32605	56.70061	-217.55692	1305.49898	367.56305	-57.30352	1211.41736	449.20824	-0.53181	1247.73750	338.88473	-1.25974	882.51511	422.52635	-330.56361	846.76630	307.56300	-315.98812	1186.85482	796.53459	-97.19415	1231.55346	695.08182	-91.03712	1233.37637	674.76690	-26.11207	1140.55718	781.07619	3.90807	1187.46637	677.08834	7.52465	1073.00590	791.75971	-351.57389	1048.64300	653.32484	-346.58676	961.09074	810.65143	-349.92681	935.34671	678.05247	-326.00353	1141.52768	948.60577	-61.31358	943.72048	979.74329	-119.15713	1131.22564	932.27881	-295.62916	937.95695	983.46065	-217.37454	1020.19443	1455.67943	-200.34519	1069.87553	1424.08391	-39.97486	1083.23165	1405.27051	-352.66849	1123.73832	1352.94819	-176.81948	1126.86232	1347.46880	-213.89729	994.04011	1203.53109	59.88512	905.51937	1139.11809	28.16889	932.96952	1133.71131	83.74256	935.63796	993.77891	114.59030	926.19131	884.36799	110.29861	895.99985	899.50715	140.17457	1129.42579	1186.16419	-431.07475	1113.56927	1067.97726	-389.12882	1134.67756	1078.83849	-444.60631	1272.72090	1027.06588	-437.64508	1367.41717	989.83317	-398.54925	1352.73451	953.88408	-420.43637	1064.46622	865.88155	-85.88549	1039.95446	866.87679	-274.96729	1072.16565	865.13336	-92.46201	1063.08208	870.99353	-247.25790	
